<mxfile host="app.diagrams.net" agent="Mozilla/5.0 (Windows NT 10.0; Win64; x64) AppleWebKit/537.36 (KHTML, like Gecko) Chrome/132.0.0.0 Safari/537.36" version="26.0.15">
  <diagram name="第 1 页" id="u84KOBXsFpAdK69ojuiD">
    <mxGraphModel dx="795" dy="543" grid="0" gridSize="10" guides="1" tooltips="1" connect="1" arrows="1" fold="1" page="1" pageScale="1" pageWidth="827" pageHeight="1169" math="0" shadow="0">
      <root>
        <mxCell id="0" />
        <mxCell id="1" parent="0" />
        <mxCell id="nni_2QoYvwKJMhdAq8uA-27" style="edgeStyle=orthogonalEdgeStyle;rounded=0;orthogonalLoop=1;jettySize=auto;html=1;exitX=0.575;exitY=0.002;exitDx=0;exitDy=0;exitPerimeter=0;entryX=0;entryY=0.5;entryDx=0;entryDy=0;" edge="1" parent="1" source="nni_2QoYvwKJMhdAq8uA-1" target="nni_2QoYvwKJMhdAq8uA-2">
          <mxGeometry relative="1" as="geometry" />
        </mxCell>
        <mxCell id="nni_2QoYvwKJMhdAq8uA-1" value="" style="shape=cube;whiteSpace=wrap;html=1;boundedLbl=1;backgroundOutline=1;darkOpacity=0.05;darkOpacity2=0.1;fillColor=#1ba1e2;fontColor=#ffffff;strokeColor=#006EAF;" vertex="1" parent="1">
          <mxGeometry x="111" y="159" width="63" height="103" as="geometry" />
        </mxCell>
        <mxCell id="nni_2QoYvwKJMhdAq8uA-12" style="edgeStyle=orthogonalEdgeStyle;rounded=0;orthogonalLoop=1;jettySize=auto;html=1;exitX=1;exitY=0.5;exitDx=0;exitDy=0;" edge="1" parent="1" source="nni_2QoYvwKJMhdAq8uA-2">
          <mxGeometry relative="1" as="geometry">
            <mxPoint x="315" y="120.33333333333337" as="targetPoint" />
          </mxGeometry>
        </mxCell>
        <mxCell id="nni_2QoYvwKJMhdAq8uA-2" value="" style="rounded=0;whiteSpace=wrap;html=1;fillColor=#f5f5f5;fontColor=#333333;strokeColor=#666666;" vertex="1" parent="1">
          <mxGeometry x="250" y="102" width="23" height="36" as="geometry" />
        </mxCell>
        <mxCell id="nni_2QoYvwKJMhdAq8uA-17" style="edgeStyle=orthogonalEdgeStyle;rounded=0;orthogonalLoop=1;jettySize=auto;html=1;exitX=1;exitY=0.5;exitDx=0;exitDy=0;" edge="1" parent="1" source="nni_2QoYvwKJMhdAq8uA-3">
          <mxGeometry relative="1" as="geometry">
            <mxPoint x="343.8889058430991" y="182" as="targetPoint" />
          </mxGeometry>
        </mxCell>
        <mxCell id="nni_2QoYvwKJMhdAq8uA-3" value="" style="rounded=0;whiteSpace=wrap;html=1;fillColor=#f5f5f5;fontColor=#333333;strokeColor=#666666;" vertex="1" parent="1">
          <mxGeometry x="250" y="164" width="23" height="36" as="geometry" />
        </mxCell>
        <mxCell id="nni_2QoYvwKJMhdAq8uA-4" value="" style="rounded=0;whiteSpace=wrap;html=1;fillColor=#f5f5f5;fontColor=#333333;strokeColor=#666666;" vertex="1" parent="1">
          <mxGeometry x="250" y="226" width="23" height="36" as="geometry" />
        </mxCell>
        <mxCell id="nni_2QoYvwKJMhdAq8uA-5" value="" style="shape=cube;whiteSpace=wrap;html=1;boundedLbl=1;backgroundOutline=1;darkOpacity=0.05;darkOpacity2=0.1;fillColor=#008a00;fontColor=#ffffff;strokeColor=#005700;" vertex="1" parent="1">
          <mxGeometry x="634" y="171" width="63" height="103" as="geometry" />
        </mxCell>
        <mxCell id="nni_2QoYvwKJMhdAq8uA-6" value="" style="rounded=0;whiteSpace=wrap;html=1;fillColor=#60a917;fontColor=#ffffff;strokeColor=#2D7600;" vertex="1" parent="1">
          <mxGeometry x="404" y="162" width="34" height="40" as="geometry" />
        </mxCell>
        <mxCell id="nni_2QoYvwKJMhdAq8uA-9" value="" style="endArrow=classic;html=1;rounded=0;exitX=0;exitY=0;exitDx=63;exitDy=20;exitPerimeter=0;" edge="1" parent="1" source="nni_2QoYvwKJMhdAq8uA-1">
          <mxGeometry width="50" height="50" relative="1" as="geometry">
            <mxPoint x="200" y="232" as="sourcePoint" />
            <mxPoint x="249" y="179" as="targetPoint" />
          </mxGeometry>
        </mxCell>
        <mxCell id="nni_2QoYvwKJMhdAq8uA-10" value="" style="endArrow=classic;html=1;rounded=0;exitX=1;exitY=0.777;exitDx=0;exitDy=0;exitPerimeter=0;" edge="1" parent="1" source="nni_2QoYvwKJMhdAq8uA-1">
          <mxGeometry width="50" height="50" relative="1" as="geometry">
            <mxPoint x="200" y="289" as="sourcePoint" />
            <mxPoint x="250" y="239" as="targetPoint" />
          </mxGeometry>
        </mxCell>
        <mxCell id="nni_2QoYvwKJMhdAq8uA-13" value="&lt;font style=&quot;font-size: 16px;&quot; face=&quot;Times New Roman&quot;&gt;reshape&amp;amp;transpose&lt;/font&gt;" style="text;html=1;align=center;verticalAlign=middle;resizable=0;points=[];autosize=1;strokeColor=none;fillColor=none;" vertex="1" parent="1">
          <mxGeometry x="309" y="104.5" width="140" height="31" as="geometry" />
        </mxCell>
        <mxCell id="nni_2QoYvwKJMhdAq8uA-29" style="edgeStyle=orthogonalEdgeStyle;rounded=0;orthogonalLoop=1;jettySize=auto;html=1;exitX=1;exitY=0.5;exitDx=0;exitDy=0;exitPerimeter=0;entryX=0;entryY=0.5;entryDx=0;entryDy=0;" edge="1" parent="1" source="nni_2QoYvwKJMhdAq8uA-14" target="nni_2QoYvwKJMhdAq8uA-6">
          <mxGeometry relative="1" as="geometry" />
        </mxCell>
        <mxCell id="nni_2QoYvwKJMhdAq8uA-14" value="" style="verticalLabelPosition=bottom;verticalAlign=top;html=1;shape=mxgraph.flowchart.or;" vertex="1" parent="1">
          <mxGeometry x="344" y="172.75" width="18" height="18.5" as="geometry" />
        </mxCell>
        <mxCell id="nni_2QoYvwKJMhdAq8uA-18" value="" style="verticalLabelPosition=bottom;verticalAlign=top;html=1;shape=mxgraph.flowchart.or;" vertex="1" parent="1">
          <mxGeometry x="464" y="234.75" width="18" height="18.5" as="geometry" />
        </mxCell>
        <mxCell id="nni_2QoYvwKJMhdAq8uA-19" style="edgeStyle=orthogonalEdgeStyle;rounded=0;orthogonalLoop=1;jettySize=auto;html=1;exitX=1;exitY=0.5;exitDx=0;exitDy=0;entryX=0;entryY=0.5;entryDx=0;entryDy=0;entryPerimeter=0;" edge="1" parent="1" source="nni_2QoYvwKJMhdAq8uA-4" target="nni_2QoYvwKJMhdAq8uA-18">
          <mxGeometry relative="1" as="geometry" />
        </mxCell>
        <mxCell id="nni_2QoYvwKJMhdAq8uA-21" value="" style="verticalLabelPosition=bottom;verticalAlign=top;html=1;shape=mxgraph.flowchart.summing_function;" vertex="1" parent="1">
          <mxGeometry x="549" y="235.25" width="18" height="18" as="geometry" />
        </mxCell>
        <mxCell id="nni_2QoYvwKJMhdAq8uA-23" style="edgeStyle=orthogonalEdgeStyle;rounded=0;orthogonalLoop=1;jettySize=auto;html=1;exitX=1;exitY=0.5;exitDx=0;exitDy=0;exitPerimeter=0;entryX=0;entryY=0.5;entryDx=0;entryDy=0;entryPerimeter=0;" edge="1" parent="1" source="nni_2QoYvwKJMhdAq8uA-18" target="nni_2QoYvwKJMhdAq8uA-21">
          <mxGeometry relative="1" as="geometry" />
        </mxCell>
        <mxCell id="nni_2QoYvwKJMhdAq8uA-25" style="edgeStyle=orthogonalEdgeStyle;rounded=0;orthogonalLoop=1;jettySize=auto;html=1;exitX=1;exitY=0.5;exitDx=0;exitDy=0;exitPerimeter=0;entryX=0.016;entryY=0.706;entryDx=0;entryDy=0;entryPerimeter=0;" edge="1" parent="1" source="nni_2QoYvwKJMhdAq8uA-21" target="nni_2QoYvwKJMhdAq8uA-5">
          <mxGeometry relative="1" as="geometry" />
        </mxCell>
        <mxCell id="nni_2QoYvwKJMhdAq8uA-26" style="edgeStyle=orthogonalEdgeStyle;rounded=0;orthogonalLoop=1;jettySize=auto;html=1;exitX=0;exitY=0;exitDx=41.5;exitDy=103;exitPerimeter=0;entryX=0.5;entryY=1;entryDx=0;entryDy=0;entryPerimeter=0;" edge="1" parent="1" source="nni_2QoYvwKJMhdAq8uA-1" target="nni_2QoYvwKJMhdAq8uA-21">
          <mxGeometry relative="1" as="geometry" />
        </mxCell>
        <mxCell id="nni_2QoYvwKJMhdAq8uA-30" style="edgeStyle=orthogonalEdgeStyle;rounded=0;orthogonalLoop=1;jettySize=auto;html=1;exitX=1;exitY=0.5;exitDx=0;exitDy=0;entryX=0.5;entryY=0;entryDx=0;entryDy=0;entryPerimeter=0;" edge="1" parent="1" source="nni_2QoYvwKJMhdAq8uA-6" target="nni_2QoYvwKJMhdAq8uA-18">
          <mxGeometry relative="1" as="geometry" />
        </mxCell>
        <mxCell id="nni_2QoYvwKJMhdAq8uA-31" value="&lt;font style=&quot;font-size: 16px;&quot; face=&quot;Times New Roman&quot;&gt;softmax&lt;/font&gt;" style="text;html=1;align=center;verticalAlign=middle;resizable=0;points=[];autosize=1;strokeColor=none;fillColor=none;" vertex="1" parent="1">
          <mxGeometry x="354" y="135.5" width="70" height="31" as="geometry" />
        </mxCell>
        <mxCell id="nni_2QoYvwKJMhdAq8uA-33" value="" style="endArrow=classic;html=1;rounded=0;entryX=0.5;entryY=0;entryDx=0;entryDy=0;entryPerimeter=0;exitX=0.309;exitY=0.905;exitDx=0;exitDy=0;exitPerimeter=0;" edge="1" parent="1" source="nni_2QoYvwKJMhdAq8uA-13" target="nni_2QoYvwKJMhdAq8uA-14">
          <mxGeometry width="50" height="50" relative="1" as="geometry">
            <mxPoint x="328" y="159" as="sourcePoint" />
            <mxPoint x="378" y="109" as="targetPoint" />
          </mxGeometry>
        </mxCell>
        <mxCell id="nni_2QoYvwKJMhdAq8uA-34" value="&lt;font style=&quot;font-size: 16px;&quot; face=&quot;Times New Roman&quot;&gt;reshape&lt;/font&gt;" style="text;html=1;align=center;verticalAlign=middle;resizable=0;points=[];autosize=1;strokeColor=none;fillColor=none;" vertex="1" parent="1">
          <mxGeometry x="281" y="191.25" width="67" height="31" as="geometry" />
        </mxCell>
        <mxCell id="nni_2QoYvwKJMhdAq8uA-35" value="&lt;font style=&quot;font-size: 16px;&quot; face=&quot;Times New Roman&quot;&gt;reshape&lt;/font&gt;" style="text;html=1;align=center;verticalAlign=middle;resizable=0;points=[];autosize=1;strokeColor=none;fillColor=none;" vertex="1" parent="1">
          <mxGeometry x="281" y="243" width="67" height="31" as="geometry" />
        </mxCell>
        <mxCell id="nni_2QoYvwKJMhdAq8uA-36" value="&lt;font style=&quot;font-size: 16px;&quot; face=&quot;Times New Roman&quot;&gt;reshape&lt;/font&gt;" style="text;html=1;align=center;verticalAlign=middle;resizable=0;points=[];autosize=1;strokeColor=none;fillColor=none;" vertex="1" parent="1">
          <mxGeometry x="482" y="212" width="67" height="31" as="geometry" />
        </mxCell>
        <mxCell id="nni_2QoYvwKJMhdAq8uA-37" value="&lt;font face=&quot;Times New Roman&quot;&gt;&lt;span style=&quot;font-size: 16px;&quot;&gt;(H×W)×(H×W)&lt;/span&gt;&lt;/font&gt;" style="text;html=1;align=center;verticalAlign=middle;resizable=0;points=[];autosize=1;strokeColor=none;fillColor=none;" vertex="1" parent="1">
          <mxGeometry x="358" y="212" width="120" height="31" as="geometry" />
        </mxCell>
        <mxCell id="nni_2QoYvwKJMhdAq8uA-38" value="&lt;font face=&quot;Times New Roman&quot;&gt;&lt;span style=&quot;font-size: 16px;&quot;&gt;C×H×W&lt;/span&gt;&lt;/font&gt;" style="text;html=1;align=center;verticalAlign=middle;resizable=0;points=[];autosize=1;strokeColor=none;fillColor=none;" vertex="1" parent="1">
          <mxGeometry x="633" y="281" width="73" height="31" as="geometry" />
        </mxCell>
        <mxCell id="nni_2QoYvwKJMhdAq8uA-39" value="&lt;font face=&quot;Times New Roman&quot;&gt;&lt;span style=&quot;font-size: 16px;&quot;&gt;C×H×W&lt;/span&gt;&lt;/font&gt;" style="text;html=1;align=center;verticalAlign=middle;resizable=0;points=[];autosize=1;strokeColor=none;fillColor=none;" vertex="1" parent="1">
          <mxGeometry x="76" y="268" width="73" height="31" as="geometry" />
        </mxCell>
        <mxCell id="nni_2QoYvwKJMhdAq8uA-40" value="&lt;font face=&quot;Times New Roman&quot;&gt;&lt;span style=&quot;font-size: 16px;&quot;&gt;A&lt;/span&gt;&lt;/font&gt;" style="text;html=1;align=center;verticalAlign=middle;resizable=0;points=[];autosize=1;strokeColor=none;fillColor=none;" vertex="1" parent="1">
          <mxGeometry x="114" y="135.5" width="30" height="31" as="geometry" />
        </mxCell>
        <mxCell id="nni_2QoYvwKJMhdAq8uA-41" value="&lt;font face=&quot;Times New Roman&quot;&gt;&lt;span style=&quot;font-size: 16px;&quot;&gt;B&lt;/span&gt;&lt;/font&gt;" style="text;html=1;align=center;verticalAlign=middle;resizable=0;points=[];autosize=1;strokeColor=none;fillColor=none;" vertex="1" parent="1">
          <mxGeometry x="267" y="122" width="29" height="31" as="geometry" />
        </mxCell>
        <mxCell id="nni_2QoYvwKJMhdAq8uA-42" value="&lt;font face=&quot;Times New Roman&quot;&gt;&lt;span style=&quot;font-size: 16px;&quot;&gt;C&lt;/span&gt;&lt;/font&gt;" style="text;html=1;align=center;verticalAlign=middle;resizable=0;points=[];autosize=1;strokeColor=none;fillColor=none;" vertex="1" parent="1">
          <mxGeometry x="267" y="191.25" width="29" height="31" as="geometry" />
        </mxCell>
        <mxCell id="nni_2QoYvwKJMhdAq8uA-43" value="&lt;font face=&quot;Times New Roman&quot;&gt;&lt;span style=&quot;font-size: 16px;&quot;&gt;D&lt;/span&gt;&lt;/font&gt;" style="text;html=1;align=center;verticalAlign=middle;resizable=0;points=[];autosize=1;strokeColor=none;fillColor=none;" vertex="1" parent="1">
          <mxGeometry x="264" y="253.25" width="30" height="31" as="geometry" />
        </mxCell>
        <mxCell id="nni_2QoYvwKJMhdAq8uA-45" value="&lt;font face=&quot;Times New Roman&quot;&gt;&lt;span style=&quot;font-size: 16px;&quot;&gt;E&lt;/span&gt;&lt;/font&gt;" style="text;html=1;align=center;verticalAlign=middle;resizable=0;points=[];autosize=1;strokeColor=none;fillColor=none;" vertex="1" parent="1">
          <mxGeometry x="651.5" y="138" width="28" height="31" as="geometry" />
        </mxCell>
        <mxCell id="nni_2QoYvwKJMhdAq8uA-46" value="&lt;font face=&quot;Times New Roman&quot;&gt;&lt;span style=&quot;font-size: 16px;&quot;&gt;S&lt;/span&gt;&lt;/font&gt;" style="text;html=1;align=center;verticalAlign=middle;resizable=0;points=[];autosize=1;strokeColor=none;fillColor=none;" vertex="1" parent="1">
          <mxGeometry x="437" y="138" width="27" height="31" as="geometry" />
        </mxCell>
        <mxCell id="nni_2QoYvwKJMhdAq8uA-47" value="&lt;font style=&quot;font-size: 16px;&quot; face=&quot;Times New Roman&quot;&gt;Posotion attention block&lt;/font&gt;" style="text;html=1;align=center;verticalAlign=middle;resizable=0;points=[];autosize=1;strokeColor=none;fillColor=none;" vertex="1" parent="1">
          <mxGeometry x="292" y="304" width="174" height="31" as="geometry" />
        </mxCell>
      </root>
    </mxGraphModel>
  </diagram>
</mxfile>
